<?xml version="1.0" encoding="UTF-8" standalone="no"?>
<svg
   version="1.1"
   x="0"
   y="0"
   viewBox="0 0 100 70.666664"
   xml:space="preserve"
   id="svg910"
   sodipodi:docname="baha_logo5.svg"
   inkscape:version="1.1 (c68e22c387, 2021-05-23)"
   width="100"
   height="70.666664"
   xmlns:inkscape="http://www.inkscape.org/namespaces/inkscape"
   xmlns:sodipodi="http://sodipodi.sourceforge.net/DTD/sodipodi-0.dtd"
   xmlns="http://www.w3.org/2000/svg"
   xmlns:svg="http://www.w3.org/2000/svg"><defs
     id="defs914" /><sodipodi:namedview
     id="namedview912"
     pagecolor="#ffffff"
     bordercolor="#666666"
     borderopacity="1.0"
     inkscape:pageshadow="2"
     inkscape:pageopacity="0.0"
     inkscape:pagecheckerboard="0"
     showgrid="false"
     inkscape:zoom="7.6320755"
     inkscape:cx="75.012361"
     inkscape:cy="53"
     inkscape:window-width="1920"
     inkscape:window-height="1017"
     inkscape:window-x="-8"
     inkscape:window-y="-8"
     inkscape:window-maximized="1"
     inkscape:current-layer="svg910" /><style
     id="style870">.st1{fill:#666464}.st2{fill:#0098ad}.st3{fill:#616465}</style><path
     fill="none"
     d="M 0,0 H 100 V 70.666667 H 0 Z"
     id="path872"
     style="stroke-width:0.666667" /><path
     class="st1"
     d="M 37.066667,52.266667 H 43.8 c 0.866667,-0.2 1.4,-0.533334 1.666667,-1 l 1.2,-4.066667 H 38.6 Z M 39.466667,50.6 40,48.8 c 0,-0.06667 0.06667,-0.06667 0.133333,-0.133333 l 0.2,-0.133334 c 0.06667,-0.06667 0.133334,-0.06667 0.2,-0.06667 h 3.333334 c 0.133333,0 0.2,0.06667 0.266666,0.133333 l 0.133334,0.133333 c 0.06667,0.06667 0.06667,0.133334 0.06667,0.2 l -0.6,1.733334 c 0,0.06667 -0.06667,0.06667 -0.06667,0.133333 -0.06667,0.06667 -0.2,0.133333 -0.333334,0.2 -0.06667,0 -0.133333,0.06667 -0.2,0.06667 h -3.266666 c -0.133334,0 -0.2,-0.06667 -0.266667,-0.133334 L 39.466667,50.8 Z"
     id="path874"
     style="stroke-width:0.666667" /><path
     class="st1"
     d="m 47.6,44.066667 c -0.2,-0.733334 -0.266667,-1.4 -0.333333,-1.933334 v -0.4 h -5.6 c -0.133334,0.2 -0.6,0.733334 -0.6,0.666667 -1.466667,1.933333 -2.133334,2.2 -2.6,2.066667 C 38.333333,44.4 38.2,44.333333 38.266667,44.2 L 39,41.733333 h -5.466667 l -3.266666,10.533334 h 4.066666 C 35.133333,52.266667 35.866667,51.8 36,51.4 l 1.666667,-5.6 c 0,-0.06667 0.06667,-0.06667 0.133333,-0.133333 L 37.933333,45.6 c 0.06667,-0.06667 0.133334,-0.06667 0.2,-0.06667 h 0.533334 c 0.133333,0.06667 0.2,0.06667 0.266666,0.2 0.06667,0.133334 0,0.333334 -0.06667,0.4 0,0.06667 0,0.06667 -0.06667,0.06667 h 7.933333 c 0.06667,-0.4 0.133334,-0.6 0.333334,-0.666667 0.06667,-0.06667 0.2,-0.06667 0.333333,-0.06667 H 47.66666 L 48,44.333333 C 47.733333,44.4 47.6,44.2 47.6,44.066667 Z M 36.533333,43 34,51.2 v 0.06667 c -0.06667,0.133333 -0.2,0.2 -0.4,0.266666 h -0.4 c -0.133333,0 -0.2,-0.06667 -0.266667,-0.133333 L 32.8,51.333333 c -0.06667,-0.06667 -0.06667,-0.133333 -0.06667,-0.2 l 2.6,-8.2 c 0,-0.06667 0.06667,-0.06667 0.133334,-0.133333 L 35.6,42.733333 c 0.06667,-0.06667 0.133333,-0.06667 0.2,-0.06667 h 0.333333 c 0.133334,0 0.2,0.06667 0.266667,0.06667 L 36.533333,42.8 Z m 8.8,2.066667 c -0.06667,0.06667 -0.133333,0.06667 -0.266666,0.06667 h -3.333334 c -0.133333,0 -0.2,-0.06667 -0.266666,-0.133333 -0.06667,-0.06667 -0.06667,-0.2 0,-0.266667 l 0.8,-0.933333 c 0.6,-0.866667 0.8,-0.933333 1,-0.933333 h 1.4 c 0.133333,0 0.266666,0.06667 0.333333,0.2 L 45.4,44.8 c 0,0.133333 -0.06667,0.2 -0.06667,0.266667 z M 52.6,49.933333 c 0,-0.06667 0,-0.06667 0.06667,-0.133333 L 54.333333,48.266667 55.4,44.4 c 0,-0.06667 0.06667,-0.133333 0.133333,-0.133333 H 55.6 c 0.06667,-0.06667 0.2,-0.133334 0.4,-0.2 l 0.333333,-1.133334 c -0.2,-0.06667 -0.266666,-0.2 -0.333333,-0.266666 v -0.133334 l 0.2,-0.8 H 54.333333 L 54,42.666667 C 54,42.733333 53.933333,42.8 53.866667,42.8 l -0.2,0.133333 C 53.6,43 53.533333,43 53.466667,43 h -0.333334 c -0.06667,0 -0.2,-0.06667 -0.266666,-0.06667 L 52.733333,42.8 C 52.666667,42.733333 52.6,42.666667 52.666667,42.6 l 0.2,-0.8 H 51 l -0.266667,0.866667 C 50.733333,42.733333 50.666667,42.8 50.6,42.8 l -0.2,0.06667 c -0.06667,0 -0.133333,0.06667 -0.2,0.06667 H 50 l -0.333333,1.133334 c 0.266666,0.06667 0.466666,0.133333 0.466666,0.4 v 0.06667 l -1.066666,3.8 v 0.133334 L 50,49.933333 c 0,0.06667 0.06667,0.133334 0,0.133334 v 0.06667 c 0,0.06667 -0.06667,0.06667 -0.06667,0.133334 -1.2,1 -1.6,1.133333 -1.933333,1.066666 -0.06667,0 -0.2,0 -0.266667,-0.06667 H 47.6 l -0.333333,1.066666 h 2.066666 C 49.866667,52.2 50.266667,51.933333 50.6,51.6 c 0.06667,-0.06667 0.133333,-0.06667 0.266667,-0.06667 h 0.06667 c 0.133334,0 0.266667,0.06667 0.266667,0.133334 0.266667,0.4 0.6,0.6 0.933333,0.666666 h 1.8 L 54.2,51.266667 C 53.466667,51.2 53.266667,51.133333 53.133333,51.066667 53.066667,51 53.066667,51 53.066667,50.933333 L 52.6,50.2 c 0,-0.06667 -0.06667,-0.06667 0,-0.133333 z M 52.466667,48 c 0,0 0,0.06667 0,0 C 52.333333,48.2 52.2,48.333333 52,48.466667 c -0.06667,0 -0.133333,0.06667 -0.2,0.06667 h -0.133333 c -0.06667,0 -0.133334,0 -0.2,-0.06667 C 51.266667,48.333333 51.2,48.2 51.133333,48 v -0.06667 l 0.933334,-3.466666 c 0,-0.06667 0.06667,-0.133334 0.133333,-0.133334 L 52.4,44.2 c 0.06667,-0.06667 0.133333,-0.06667 0.2,-0.06667 h 0.333333 c 0.133334,0 0.2,0.06667 0.266667,0.06667 l 0.133333,0.133333 C 53.4,44.4 53.4,44.466667 53.4,44.533333 Z M 65.2,45.533333 v -0.06667 L 66.133333,41.8 h -8.4 l -1,3.8 c 0,0.06667 -0.06667,0.06667 -0.06667,0.133333 C 56.533333,45.866667 56.4,45.933333 56.2,46 l -0.333333,1.2 c 0.2,0.06667 0.266666,0.2 0.333333,0.266667 0,0.06667 0.06667,0.06667 0,0.133333 l -1,3.733333 H 61 c 0.133333,0 0.2,0 0.4,0.133334 0.06667,0.06667 0.06667,0.133333 0.06667,0.2 0,0.06667 -0.06667,0.2 -0.2,0.2 h -0.933334 l -0.06667,0.6 C 63.133333,52.533333 62.866667,52.4 63,52.4 l 0.06667,-0.06667 c 0.466666,-0.2 0.6,-0.333333 0.6,-0.733333 v -0.06667 c 0.06667,-0.266666 0.333333,-0.133333 0.6,-0.2 L 64.533333,50.2 c -0.2,-0.06667 -0.4,-0.133333 -0.4,-0.333333 V 49.8 l 0.6,-2.2 c 0,-0.06667 0.06667,-0.133333 0.133334,-0.133333 L 65,47.4 c 0.06667,0 0.133333,-0.06667 0.133333,-0.06667 h 0.2 l 0.333334,-1.266666 C 65.333333,45.8 65.2,45.666667 65.2,45.533333 Z M 62.133333,49.8 c 0,0.133333 -0.2,0.2 -0.333333,0.2 H 61.6 C 61.466667,50 61.066667,49.933333 61,49.933333 60.933333,49.866667 60.933333,49.8 60.933333,49.8 V 48.333333 48.066667 H 59.466667 L 59.4,49.933333 C 59.4,50.066667 59.266667,50.2 59.066667,50.2 h -1.133334 c -0.133333,0 -0.2,-0.06667 -0.266666,-0.06667 L 57.6,50.066667 c -0.06667,-0.06667 -0.06667,-0.133334 -0.06667,-0.2 l 0.6,-2.333334 C 58.133333,47.466667 58.2,47.4 58.266667,47.4 l 0.2,-0.133333 C 58.533333,47.2 58.6,47.2 58.666667,47.2 h 3.666666 c 0.133334,0 0.2,0.06667 0.266667,0.133333 h 0.06667 c 0.06667,0.06667 0.06667,0.133334 0.06667,0.2 z m 1.133334,-4.266667 c 0,0.06667 -0.06667,0.133334 -0.133334,0.133334 L 63,45.8 c -0.06667,0.06667 -0.133333,0.06667 -0.2,0.06667 h -0.133333 c -0.133334,0 -0.533334,-0.06667 -0.6,-0.06667 L 62,45.733333 C 61.933333,45.666667 61.933333,45.666667 61.933333,45.6 V 44 H 60.6 c 0,1.266667 0,1.666667 -0.06667,1.8 0,0.133333 -0.2,0.2 -0.333333,0.2 H 59 c -0.133333,0 -0.2,-0.06667 -0.266667,-0.06667 -0.06667,-0.06667 -0.06667,-0.133333 -0.06667,-0.2 l 0.6,-2.333333 c 0,-0.06667 0.06667,-0.133333 0.133333,-0.133333 l 0.2,-0.133334 c 0.06667,0 0.133333,-0.06667 0.2,-0.06667 h 3.666667 c 0.06667,0 0.2,0 0.266666,0.06667 l 0.133334,0.133334 c 0.06667,0.06667 0.133333,0.133333 0.06667,0.2 z"
     id="path876"
     style="stroke-width:0.666667" /><g
     id="g880"
     transform="scale(0.66666667)"><path
       class="st1"
       d="m 120.3,65.5 0.2,-0.1 c 0.1,0 0.2,-0.1 0.3,-0.1 h 4.2 l 0.5,-1.8 h -4.4 c -0.3,-0.1 -0.6,-0.4 -0.4,-0.7 v -0.1 h -3 c -0.1,0.5 -0.2,0.7 -0.5,0.9 -0.1,0.1 -0.3,0.1 -0.4,0.1 h -4.4 l -0.5,1.8 h 4.2 c 0.1,0 0.3,0 0.4,0.1 l 0.2,0.1 c 0.1,0.1 0.2,0.2 0.1,0.3 l -0.3,1.1 c 0,0.1 -0.1,0.2 -0.2,0.2 l -0.2,0.1 c -0.1,0.1 -0.2,0.1 -0.3,0.1 h -4.4 l -0.5,1.8 h 7.7 c 0.1,0 0.3,0 0.4,0.1 l 0.2,0.1 c 0.1,0.1 0.2,0.2 0.1,0.3 l -0.2,0.7 c 0,0.1 -0.1,0.2 -0.2,0.2 l -0.2,0.1 c -0.1,0 -0.2,0.1 -0.3,0.1 H 110 l -0.5,1.9 h 8.2 c 0.2,0 0.3,0.1 0.4,0.1 l 0.2,0.2 c 0.1,0.1 0.1,0.2 0.1,0.3 l -0.7,2.8 c 0,0.2 -0.2,0.5 -1,0.6 h -1.4 -0.1 c -0.2,0 -0.4,-0.1 -0.5,-0.2 -0.2,-0.2 -0.1,-0.5 0,-0.7 0.1,-0.1 0.1,-0.2 0.1,-0.3 h -0.1 c -0.4,0 -1.2,0 -1.3,-0.9 0,-0.2 0,-0.3 -0.1,-0.4 h -4.1 c 0.1,0.2 0.2,0.6 0.2,0.6 0.3,1.1 0.7,1.7 1.4,2 0.5,0.3 1.2,0.3 2,0.2 0.6,-0.1 1,0 1.2,0.2 0.4,0.3 0.1,0.8 -0.1,1 0,0.1 0,0.1 -0.1,0.1 h 4.6 c 1.4,-0.3 1.7,-0.8 1.9,-1.3 l 1,-4 c 0,0 0,-0.1 0.1,-0.1 0.3,-0.3 0.7,-0.4 1.2,-0.3 h -0.1 c 0.2,0 0.7,0.1 0.8,0.1 l 0.5,-1.9 c -0.6,0 -1.4,-0.1 -1.6,-0.3 -0.1,-0.1 -0.1,-0.2 -0.1,-0.3 l 0.2,-0.7 c 0,-0.1 0.1,-0.1 0.1,-0.2 0.4,-0.3 0.7,-0.3 0.9,-0.2 0.2,0 0.6,0.1 0.7,0.1 l 0.5,-1.8 h -4.4 c -0.2,0 -0.3,0 -0.4,-0.1 l -0.2,-0.1 c -0.1,-0.1 -0.1,-0.2 -0.1,-0.3 l 0.3,-1.1 c 0.4,-0.2 0.5,-0.3 0.6,-0.4 z m -10.4,0.9 0.4,-1.7 c -0.6,0 -1,0 -1.2,-0.2 C 109,64.4 109,64.3 109,64.2 l 0.4,-1.5 h -3.1 l -0.4,1.6 c 0,0.1 -0.1,0.2 -0.2,0.2 l -0.2,0.1 c -0.1,0 -0.2,0.1 -0.3,0.1 h -0.7 c -0.1,0 -0.3,0 -0.4,-0.1 C 104,64.5 104,64.4 104,64.3 l 0.1,-0.3 c 0,-0.1 0,-0.1 0.1,-0.1 l 0.2,-0.5 h -1.6 v 0.2 c -0.7,2.2 -1.1,3 -1.6,3.2 v 1.7 h 0.2 c 0.7,-0.1 1.3,-0.5 1.6,-1.2 0.1,-0.4 0.2,-0.7 0.4,-0.8 0.1,-0.1 0.3,-0.1 0.5,-0.1 h -0.1 0.7 c 0.1,0 0.3,0 0.4,0.1 l 0.2,0.1 c 0.1,0.1 0.1,0.2 0.1,0.3 l -0.6,2.2 c 0,0 0,0.1 -0.1,0.1 -2.5,3 -3.9,3.3 -4.5,3.6 L 99.5,75 h 1.3 c 0.6,-0.1 1,-0.3 1.2,-0.5 0.1,-0.1 0.6,-0.2 0.8,-0.1 0.2,0.1 0.3,0.2 0.3,0.4 l -1,3.6 h 3.1 l 2,-7.6 v -0.1 c 0.1,-0.1 0.4,-0.5 1.2,-0.3 h -0.1 0.4 l 0.4,-1.7 c -0.6,0 -1,0 -1.2,-0.2 -0.1,-0.1 -0.1,-0.2 -0.1,-0.4 l 0.4,-1.4 v -0.1 c 0.1,-0.1 0.4,-0.4 1.2,-0.3 h -0.1 c 0.3,0.1 0.5,0.1 0.6,0.1 z"
       id="path878" /></g><path
     class="st1"
     d="M 29.066667,51.133333 H 18.2 18.066667 c -0.133334,0 -0.2,0 -0.266667,-0.06667 C 17.666667,51 17.4,50.666667 17.466667,50.2 c 0,-0.06667 0,-0.2 0.133333,-0.4 0,0 0.06667,-0.133333 0.2,-0.133333 C 17.866667,49.6 17.933333,49.6 18,49.6 h 9.2 c 0,0 0.06667,0 0.133333,-0.06667 1.2,-0.2 1.866667,-0.6 2.066667,-1.266666 L 31.333333,41.8 H 17.466667 c -0.333334,1 -2.6,8.2 -2.6,8.133333 l -0.4,1 c 0.133333,0.933334 0.666666,1.333334 1.6,1.4 h 11.6 c 0,0 0.533333,0.06667 1,-0.333333 0.4,-0.266667 0.4,-0.866667 0.4,-0.866667 z m -5.333334,-3.266666 1.466667,-4.4 C 25.2,43.4 25.266667,43.4 25.333333,43.333333 l 0.2,-0.133333 c 0.06667,0 0.133334,-0.06667 0.2,-0.06667 H 27.8 c 0.06667,0 0.2,0 0.266667,0.06667 L 28.2,43.333333 c 0.06667,0.06667 0.06667,0.133334 0.06667,0.2 l -1.266667,4 C 26.933333,47.8 26.666667,48.066667 26,48.266667 H 26.266667 24.4 c -0.06667,0 -0.133333,0 -0.2,-0.06667 l -0.133333,-0.13333 C 23.733333,48 23.733333,47.933333 23.733333,47.866667 Z m -5.533333,0 1.466667,-4.4 C 19.666667,43.4 19.733333,43.4 19.8,43.333333 L 20,43.2 c 0.06667,0 0.133333,-0.06667 0.2,-0.06667 h 1.933333 c 0.06667,0 0.2,0 0.266667,0.06667 l 0.133333,0.133333 C 22.6,43.4 22.6,43.466667 22.6,43.533333 l -1.466667,4.4 C 21.133333,48 21.066667,48 21,48.066667 L 20.8,48.2 c -0.06667,0 -0.133333,0.06667 -0.2,0.06667 h -1.933333 c -0.06667,0 -0.133334,0 -0.2,-0.06667 L 18.333333,48.066667 C 18.2,48 18.2,47.933333 18.2,47.866667 Z"
     id="path882"
     style="stroke-width:0.666667" /><g
     id="g888"
     transform="scale(0.66666667)"><path
       class="st2"
       d="m 92.5,40.1 -0.3,3.6 C 91.7,43.9 91,45.6 91,45.6 l -5.5,6.8 c 1.9,0.3 3.2,-0.2 3.2,-0.2 -1,-1.9 1.5,-3.2 1.5,-3.2 l 2.7,-0.2 c 3.3,-1.5 4.7,-4.5 4.7,-4.5 0.7,-2.4 0.2,-3.9 0.1,-4.1 z m 20.5,-4.4 -2.2,-1.8 -4.4,0.5 c -0.4,0.5 -1.9,1.2 -1.9,1.2 -0.7,0.5 -0.8,-0.6 -0.8,-0.6 l -0.9,-0.8 -0.6,3.7 3.2,-0.1 1.1,-1.6 1.5,-0.8 c 0.2,-0.1 0.7,-0.5 1,-0.4 h 1.9 l 0.1,1.6 0.8,-0.9 -0.2,-0.1 c 0.7,0.3 0.7,1.9 0.7,1.9 z m -12.5,-1.8 -2.2,-1.3 c 0,0 -1.8,-1.9 -1.7,-3.4 l 5.8,-12.7 0.2,-0.1 h 0.3 l 0.5,0.3 c 0.3,0.4 0.7,1.1 1,1.3 0.2,0.6 0.4,1.3 0.7,1.7 0,0 -0.5,-1.8 -0.2,-2.9 -1.1,-0.5 -1.7,-2.6 -1.7,-2.6 l -0.9,0.4 c -0.4,0 -0.8,-0.1 -1,-0.1 C 100.7,14.2 100,13.9 99.7,13.8 97.1,12.5 89.3,8.8 79.3,7.1 66.9,4.9 36,4.6 28.7,5.7 c -7.3,1.1 -4.4,0.9 -4.4,0.9 0,0 27.6,3.3 40.7,12.8 l 28.7,17.2 z"
       id="path884" /><path
       class="st1"
       d="m 108,62.2 c -0.2,-0.4 -0.4,-0.8 -0.5,-1.2 h -0.2 c 0.2,0.4 0.4,0.8 0.7,1.2 z M 84.5,80.1 h -7 l 0.2,0.2 c 6.4,7.6 17.6,8.6 25.2,2.2 l 0.2,-0.2 C 97.3,85.9 89.7,85 84.5,80.1 Z m 0,-23.1 c 6.3,-5.3 16,-4.2 21.6,2.4 0.4,0.5 0.8,1 1.1,1.5 h 0.2 c -0.6,-1.3 -1.4,-2.5 -2.4,-3.7 -4.7,-5.6 -12.1,-7.6 -18.7,-5.7 0.5,-1 1.3,-1.9 1.3,-1.9 0.8,0 0.4,-0.2 1.8,-0.8 C 89.7,48.3 92,48 92,48 c 1.6,-0.3 3.1,-1.6 4.1,-3.3 0.9,-1.6 0.6,-3.2 0.6,-3.2 l 4.8,-3.5 c 1.6,-0.1 1.7,-0.2 1.7,-0.2 l 1.2,0.2 5.1,-1.9 -0.2,1.6 1.3,-1 c 0.1,0.1 0.4,0.4 0.2,1.2 -0.1,0.4 0.9,-0.7 0.9,-0.7 l 0.9,-1.1 -2.6,-1.8 -4.2,1 c -0.3,-0.2 -1.3,0.9 -0.2,-0.2 0.5,-0.5 1.3,-2.6 1.3,-2.6 l 0.1,-2.6 1.4,-1.8 0.7,-0.3 c 0.3,0.1 0.7,0.2 1.1,0.2 0.3,0.1 0.6,0.2 0.8,0.4 l 0.3,0.2 1,-0.8 h -0.6 -0.4 v -0.1 l -0.3,0.1 c -0.5,-0.3 -1.2,-1.2 -1.2,-1.2 l 0.8,-0.9 h 1.1 c 0.1,0 0.4,0 0.5,0.1 l 0.4,0.5 0.1,-0.3 c 0.6,0.1 0.5,0.6 0.5,0.6 l 0.2,-0.3 c 0,0 -0.4,-1.8 -1,-1.5 -0.4,0.1 -1.5,-0.3 -2.4,-0.7 l -1.2,-0.6 -4,0.1 c -0.4,0 -2.6,0 -4,0.5 0,0 2.4,-0.2 5.2,0.6 0.1,0.1 0.2,0.1 0.3,0.1 -0.8,0.3 -5.7,1.2 -6.4,1.2 -1,0 3.3,0.4 5.7,0.2 l -1.6,1.5 c -0.2,0.1 -2.7,1.3 -3.1,1.6 -0.6,0.3 1.6,-0.2 1.6,-0.2 -0.5,0.3 -1.9,0.8 -2.5,0.9 0,0 0.5,0.6 1.1,0.7 -0.9,0.2 -2.3,0.6 -2.7,0.5 0,0 0.7,0.2 1.2,0.4 -1.5,0.2 -2.6,0.6 -2.6,0.6 l 1.3,0.7 -1.3,0.9 C 94.2,32.1 94.3,30 94.3,30 L 98.8,18.2 C 99,18.1 99.1,18.1 99.3,18 l 0.6,0.4 c 0.1,0.2 0.2,0.3 0.4,0.5 0.3,1.8 2.1,3.5 1.6,2.8 -0.3,-0.4 -0.5,-1.3 -0.7,-2.1 l -0.2,-1.8 -2.1,-2.3 -1.5,0.6 c 0,0 -18.9,-4.9 -21.2,-4.8 -3.6,-1.1 -50.8,3.8 -50.8,3.8 l -6,1.5 c 2.3,-0.3 5.2,-0.5 8.4,-0.5 1.9,0.1 4.2,0.3 6.7,0.5 l 7.7,1.3 c 30.5,5.3 11.7,18.2 11.7,18.2 l -1.4,1.2 c 10.3,-6.2 18.1,-6.1 18.1,-6.1 8.1,0.5 2.5,11.2 2.5,11.2 6.4,-6.5 13,-7.4 16.7,-7.3 0.9,0.1 1.8,0.4 2.5,0.8 -0.2,0.2 -1.5,1.6 -1.7,1.8 L 84.7,39 c -0.4,0.4 3.7,0 3.3,0.4 -0.6,0.5 0.2,0.2 -0.4,0.6 -0.5,0.3 -4.6,0.6 -5.1,0.9 -0.5,0.3 2.9,0.5 2.4,0.8 -0.5,0.3 -0.4,0.2 -0.3,0.2 0,0 -0.1,0 -0.4,0.1 -0.5,0.2 -6.2,0.3 -6.7,0.4 -0.5,0.1 2.8,1 2.3,1.1 -5.2,1.2 -5.7,2.8 -13,0.6 -0.6,0 -3.6,-2.7 -4.1,-2.7 -0.5,0 1.6,2.5 1.1,2.5 -0.4,0 -5.1,-2.3 -5.4,-2.3 -1.2,-0.1 2.5,2 2.5,2 -0.8,-0.2 -1.2,-0.4 -2,-0.5 -0.6,-0.1 -5,-1.7 -5.5,-1.7 -0.3,0 2.6,1.6 2.3,1.6 -1.1,-0.1 -1.8,-0.2 -2.7,-0.2 -0.6,0 -5,-1.1 -5.6,-1.1 -0.6,0 2.6,1.3 2.1,1.3 -2.6,0.3 -4.2,0.8 -4.2,0.8 -3.5,1.3 -0.8,0.8 -0.8,0.8 11.8,-2 15.9,0.9 21.3,2.6 C 78,51 90.4,43.4 90.4,43.4 L 89.6,45 c 0.2,1.6 -1.5,3.1 -1.5,3.1 l -1.1,0.2 -0.8,-0.6 -1,1 -0.2,1.6 c -0.1,0.2 -0.3,1.1 -0.5,2 -1.6,0.7 -3.2,1.6 -4.6,2.8 -2,1.7 -3.5,3.7 -4.6,5.9 h 5.9 c 0.8,-1.5 1.9,-2.9 3.3,-4 z m 25.6,-31.9 -0.1,0.2 -1.1,0.2 -1.1,-0.9 z"
       id="path886" /></g><g
     id="g908"
     transform="scale(0.66666667)"><path
       class="st3"
       d="M 8.6,93.3 H 9.7 V 92.4 H 11 v -1 H 9.7 V 90.6 H 8.6 v 0.8 H 6 v 1 h 2.6 z m 3.1,1 h 4.5 V 93.4 H 6.1 v 0.9 h 4.5 v 2.9 H 5.9 v 1 h 4.7 V 99 H 6.4 v 0.9 h 4.2 v 1.6 h 1.1 v -1.6 h 4.2 V 99 h -4.2 v -0.8 h 4.8 v -1 h -4.8 z"
       id="path890" /><path
       class="st3"
       d="m 14.5,97.1 v -0.9 h 1.7 v -1 h -1.7 v -0.8 h -1 v 0.8 h -1.4 v 1 h 1.4 v 0.9 z M 7.8,94.4 v 0.9 H 6.2 v 0.9 h 1.6 v 0.9 h 1 v -0.9 h 1.5 V 95.3 H 8.8 v -0.9 z m 4.8,-1.1 h 1.1 v -0.9 h 2.7 v -1 h -2.7 v -0.8 h -1.1 v 0.8 h -1.3 v 1 h 1.3 z m 13.2,-0.9 c 0.1,-0.6 0.1,-1.2 0.1,-1.6 v -0.2 h -1.2 v 0.3 c 0,2 -0.1,7.3 -4.8,9.6 l -0.2,0.1 0.1,0.1 c 0.3,0.2 0.5,0.4 0.7,0.7 v 0.1 h 0.1 c 2.3,-1.2 3.8,-3.3 4.6,-6.2 0.9,3 2.5,5.1 4.7,6.1 H 30 v -0.1 c 0.1,-0.2 0.4,-0.5 0.6,-0.7 l 0.1,-0.1 -0.1,-0.1 c -2.5,-1.2 -4.3,-4 -4.8,-8 z m 16.9,7.1 c 0.8,-0.8 1.3,-1.7 1.7,-2.7 v -0.1 l -0.6,-0.3 h -4.4 v 0.9 H 40 v 0.1 c 0.3,0.8 0.7,1.5 1.3,2 -0.6,0.4 -1.3,0.8 -2,1 V 96 h 5.5 V 95 H 34.3 v 1 h 1 v 3.7 c -0.4,0 -0.7,0.1 -1,0.1 h -0.1 l 0.1,1 h 0.1 c 0.6,-0.1 1.3,-0.1 2,-0.2 0.6,-0.1 1.2,-0.1 1.8,-0.2 v 1.2 h 1 V 101 c 0.1,0.1 0.2,0.3 0.3,0.5 v 0.1 h 0.1 c 0.8,-0.3 1.6,-0.7 2.3,-1.2 0.7,0.5 1.5,1 2.4,1.2 h 0.1 v -0.1 c 0.1,-0.2 0.3,-0.5 0.5,-0.7 L 45,100.7 H 44.8 C 44,100.3 43.3,100 42.7,99.5 Z M 43,97.4 c -0.3,0.5 -0.6,1 -1.1,1.5 -0.4,-0.5 -0.8,-1 -1,-1.5 z M 36.2,96.5 V 96 h 1.9 v 0.6 h -1.9 z m 0,1.4 v -0.6 h 1.9 v 0.6 z m 0,1.6 v -0.7 h 1.9 v 0.5 c -0.4,0 -0.8,0.1 -1.3,0.1 -0.1,0.1 -0.3,0.1 -0.6,0.1 z m 0.4,-7.6 h 5.8 v 2.9 h 1.1 V 91 h -7.9 v 3.8 h 1 z"
       id="path892" /><path
       class="st3"
       d="m 36.9,93.7 h 5.2 v 0.8 h -5.2 z m 0,-1.3 h 5.2 v 0.8 H 36.9 Z M 54.5,95 h 4.4 v -1.1 h -4.8 c 0.1,-1.2 0.2,-2.3 0.2,-3.2 v -0.2 h -1.1 v 0.4 c 0,0.8 0,1.8 -0.2,2.9 H 48.5 V 95 h 4.3 c -0.6,2.7 -2.1,4.5 -4.5,5.5 l -0.2,0.1 0.1,0.1 c 0.2,0.2 0.5,0.5 0.6,0.7 v 0.1 h 0.1 c 2.3,-1.1 3.9,-2.9 4.6,-5.5 1,2.7 2.6,4.6 4.6,5.5 h 0.1 v -0.1 c 0.1,-0.2 0.4,-0.6 0.6,-0.8 l 0.1,-0.1 -0.1,-0.1 c -2.3,-1 -3.6,-3.5 -4.3,-5.4 z m 9.7,0.9 c 0.7,-0.1 1.4,-0.3 2.2,-0.4 L 67,95.4 v -0.7 h -0.1 c -0.9,0.1 -2,0.3 -2.8,0.4 H 64 v -1.8 h 3.4 V 96 h 1 V 93.3 H 71 l -0.1,0.1 c -0.6,0.2 -1.4,0.5 -2,0.6 h -0.1 l 0.4,0.6 h 0.1 c 0.3,-0.1 1.5,-0.3 2.3,-0.7 l 0.1,-0.1 -0.5,-0.6 h 0.7 v 1.9 H 73 v -2.7 h -4.6 v -0.5 h 4 V 91 h -9 v 0.8 h 4 v 0.5 H 62.9 V 95 h 1 z m 8.3,3.1 -0.1,-0.1 v 0.2 c -0.1,1.2 -0.2,1.3 -0.7,1.3 h -2.6 c -0.7,0 -0.8,-0.1 -0.8,-0.4 v -0.3 h 3.6 V 96 h -8.1 v 4.3 h 1 v -0.6 h 2.4 v 0.3 c 0,1.1 0.5,1.3 1.8,1.3 h 2.7 c 1.2,0 1.5,-0.5 1.6,-1.9 V 99.3 H 73.2 C 73,99.3 72.7,99.2 72.5,99 Z m -5.2,-0.7 v 0.6 h -2.4 v -0.6 z m 0,-1.4 v 0.6 h -2.4 v -0.6 z m 1,0.6 v -0.6 h 2.6 v 0.6 z m 0,1.4 v -0.6 h 2.6 v 0.6 z"
       id="path894" /><path
       class="st3"
       d="m 64.5,93.2 -0.4,0.6 h 0.1 c 0.8,0.2 1.8,0.4 2.2,0.7 h 0.1 l 0.3,-0.7 h -0.1 c -0.4,-0.2 -1.4,-0.4 -2.2,-0.6 z m 4.4,1.4 -0.3,0.7 h 0.1 c 0.9,0.1 2.1,0.4 2.7,0.6 h 0.1 l 0.3,-0.8 h -0.1 c -0.6,-0.2 -1.8,-0.4 -2.8,-0.5 z m 12.2,-3.2 h 5.7 v 1 h -5.7 z m 5.7,7.4 -0.2,-0.2 v 0.2 c 0,1.3 -0.1,1.5 -0.2,1.5 h -0.8 c -0.2,0 -0.2,0 -0.2,-0.3 v -4.3 h 2 v -1 h -6.8 v 1 h 1.6 c -0.1,2.4 -0.4,4 -2.7,4.9 l -0.2,0.1 0.1,0.1 c 0.2,0.1 0.4,0.4 0.5,0.6 v 0.1 H 80 c 2.5,-1 3.1,-2.7 3.2,-5.7 h 1.1 v 4.3 c 0,1 0.3,1.3 1.1,1.3 h 1 c 0.9,0 1.1,-0.7 1.1,-2.1 V 99.2 H 87.4 C 87.3,99.1 87,98.9 86.8,98.8 Z"
       id="path896" /><path
       class="st3"
       d="m 81,98.9 -0.1,-1 h -0.1 c -0.3,0.1 -0.7,0.2 -1,0.3 -0.2,0 -0.4,0.1 -0.5,0.1 v -2.5 h 1.3 v -1 h -1.3 v -2.4 h 1.5 v -1 h -4.1 v 1 h 1.5 v 2.4 h -1.4 v 1 h 1.4 v 2.7 c -0.3,0.1 -0.6,0.1 -0.8,0.2 -0.3,0.1 -0.6,0.1 -0.8,0.2 h -0.1 l 0.2,1 h 0.1 c 0.8,-0.2 1.8,-0.5 2.9,-0.8 z m 17.9,-3.7 h 2.5 v -1 h -2.5 v -3.7 h -1.1 v 3.7 h -2.5 v 1 h 2.5 v 4.7 h -3 v 1.1 h 6.8 v -1.1 h -2.7 z"
       id="path898" /><path
       class="st3"
       d="M 95.5,97 95.2,96.7 C 94.9,96.3 94.3,95.8 93.9,95.4 94.5,94.6 95,93.8 95.3,93 v -0.1 l -0.6,-0.4 h -1.2 l 0.6,-0.4 V 92 c -0.2,-0.4 -0.7,-1 -1.2,-1.5 l -0.1,-0.1 -0.7,0.6 0.1,0.1 c 0.4,0.4 0.8,1 1,1.5 h -2.3 v 1 h 3 c -0.7,1.3 -2,2.7 -3.3,3.4 h -0.1 l 0.1,0.1 c 0.1,0.1 0.3,0.6 0.4,0.8 V 98 l 0.1,-0.1 c 0.5,-0.3 1,-0.7 1.5,-1.2 v 4.6 h 1.1 v -4.9 c 0.4,0.4 0.8,0.9 1,1.2 l 0.1,0.1 z m 18.1,-0.8 h 1.8 v -1 h -1.8 v -1.4 h 2 v -1 h -1.2 c 0.3,-0.5 0.6,-1.3 0.9,-1.9 v -0.1 l -1,-0.3 v 0.1 c -0.2,0.6 -0.6,1.5 -0.8,2 l -0.1,0.1 0.3,0.1 h -1.6 l 0.3,-0.1 v -0.1 c -0.1,-0.5 -0.5,-1.3 -0.9,-1.9 v -0.1 l -0.9,0.3 0.1,0.1 c 0.3,0.6 0.6,1.3 0.8,1.8 h -0.9 V 93 H 110 v -1.9 h -4.4 v 1 h 1.4 c 0,0.2 0,0.5 -0.1,0.7 V 93 H 105 v 1 h 1.8 c -0.1,0.3 -0.1,0.7 -0.2,1 h -1.1 v 1 h 0.8 c -0.4,1.1 -0.8,2 -1.5,2.6 l -0.1,0.1 0.1,0.1 c 0.2,0.2 0.5,0.5 0.6,0.7 l 0.1,0.1 0.1,-0.1 c 0.2,-0.2 0.4,-0.5 0.6,-0.8 v 2.9 h 1 V 101 h 3 V 97.1 H 107 c 0.1,-0.3 0.2,-0.7 0.3,-1 h 2.6 V 94 h 0.7 v -0.2 h 1.8 v 1.4 h -1.8 v 1 h 1.8 v 1.5 h -2.2 v 1 h 2.2 v 2.7 h 1 v -2.7 h 2.3 v -1 h -2.3 V 96.2 Z M 109,94 v 1 h -1.4 c 0.1,-0.3 0.1,-0.6 0.2,-1 z m 0,-1.9 v 1 h -1.1 c 0,-0.3 0.1,-0.6 0.1,-1 z m 0.1,5.8 v 2 h -1.9 v -2 z m 10.5,0.2 c -0.1,1.2 -0.3,2.1 -0.5,2.7 v 0.1 h 0.1 c 0.2,0.1 0.5,0.2 0.6,0.2 l 0.1,0.1 v -0.1 c 0.2,-0.7 0.5,-1.8 0.6,-2.8 v -0.1 z m 2.1,0 -0.8,0.1 v 0.1 c 0.1,0.6 0.3,1.7 0.3,2.5 v 0.1 l 0.9,-0.2 v -0.1 c -0.2,-0.8 -0.3,-1.8 -0.4,-2.5 z"
       id="path900" /><path
       class="st3"
       d="M 123.5,97.1 122.8,95 v -0.1 l -0.8,0.3 0.2,0.4 c 0.1,0.2 0.2,0.4 0.3,0.7 l -1.6,0.2 c 0.9,-1.1 1.7,-2.4 2.4,-3.7 v -0.1 l -0.9,-0.5 v 0.1 c -0.2,0.5 -0.5,1.1 -0.8,1.6 l -1,0.1 c 0.6,-0.8 1.2,-1.9 1.6,-3 v -0.1 l -0.9,-0.4 v 0.1 c -0.5,1.3 -1.2,2.6 -1.5,2.9 -0.2,0.4 -0.4,0.6 -0.6,0.6 h -0.1 v 0.1 c 0.1,0.2 0.2,0.6 0.2,0.7 V 95 l 0.1,-0.1 c 0.1,-0.1 0.4,-0.1 1.4,-0.2 -0.4,0.6 -0.7,1 -0.8,1.2 -0.3,0.4 -0.6,0.7 -0.8,0.7 h -0.1 l 0.1,0.1 c 0.1,0.2 0.2,0.6 0.2,0.7 v 0.1 l 0.1,-0.1 c 0.2,-0.1 0.6,-0.2 3.1,-0.6 V 97 c 0,0.1 0.1,0.2 0.1,0.3 v 0.1 l -0.7,0.2 v 0.1 c 0.2,0.6 0.5,1.6 0.7,2.3 v 0.1 l 0.8,-0.3 v 1.4 h 1 v -9.4 h 4.2 v 8.3 c 0,0.1 0,0.1 -0.1,0.1 h -1.3 l 0.1,0.2 c 0.1,0.2 0.2,0.5 0.2,0.7 v 0.1 h 0.1 c 0.7,0 1.2,0 1.5,-0.2 0.4,-0.2 0.5,-0.5 0.5,-0.9 v -9.3 h -6.2 z m 0,2.9 c -0.1,-0.7 -0.4,-1.6 -0.7,-2.3 v -0.1 l 0.7,-0.3 z"
       id="path902" /><path
       class="st3"
       d="m 128.5,99.1 0.1,-0.1 v -0.4 -0.4 h -0.1 c -0.1,0 -0.4,0.1 -0.7,0.1 h -1.4 c -0.2,0 -0.2,0 -0.2,-0.3 v -1 h 2.4 v -0.9 h -1.4 0.1 V 96 c -0.1,-0.2 -0.3,-0.6 -0.4,-0.9 h 1.9 v -0.9 h -1 c 0.2,-0.5 0.4,-1 0.5,-1.6 v -0.1 l -0.8,-0.2 v 0.1 c -0.1,0.5 -0.3,1.3 -0.5,1.9 h -0.8 l 0.4,-0.1 v -0.1 c -0.1,-0.5 -0.3,-1.2 -0.6,-1.7 v -0.1 l -0.7,0.3 0.1,0.1 c 0.3,0.5 0.5,1.1 0.6,1.6 h -1 v 0.9 h 1.4 l -0.1,0.1 0.1,0.1 c 0.2,0.3 0.3,0.6 0.4,0.9 h -1.5 V 97 h 0.4 v 1 c 0,0.8 0.2,1.2 1,1.2 h 1.5 c -0.1,0 0.2,0 0.3,-0.1 z m 6,-0.5 0.9,-0.2 v -0.1 c -0.1,-1.1 -0.3,-2.7 -0.6,-4.2 V 94 l -0.9,0.2 v 0.1 c 0.3,1.4 0.5,3.1 0.6,4.2 z m 9.6,-4.6 v -1 h -2.9 v -2.4 h -1.1 v 5.6 h -1.9 v 5.3 h 1 V 101 h 3.3 v 0.5 h 1.1 v -5.3 h -2.5 V 94 Z m -1.5,3.1 v 2.7 h -3.3 v -2.7 z m -6,-4.6 c -0.2,-0.6 -0.5,-1.3 -0.9,-1.9 v -0.1 l -0.9,0.3 0.1,0.1 c 0.3,0.5 0.6,1.3 0.8,1.7 h -2.1 v 1 h 4.7 v -1 H 136 Z"
       id="path904" /><path
       class="st3"
       d="m 136.8,98.4 c 0.3,-1.2 0.6,-2.9 0.8,-4.2 v -0.1 l -1,-0.2 V 94 c -0.1,1.4 -0.4,3.4 -0.7,4.6 -0.7,0.2 -1.3,0.3 -1.9,0.4 -0.2,0 -0.4,0.1 -0.6,0.1 h -0.1 l 0.3,1.1 h 0.1 l 4.4,-1.1 h 0.1 l -0.1,-1 z"
       id="path906" /></g></svg>
