<?xml version="1.0" standalone="no"?><!DOCTYPE svg PUBLIC "-//W3C//DTD SVG 1.1//EN" "http://www.w3.org/Graphics/SVG/1.1/DTD/svg11.dtd"><svg t="1734195686494" class="icon" viewBox="0 0 1024 1024" version="1.1" xmlns="http://www.w3.org/2000/svg" p-id="9897" xmlns:xlink="http://www.w3.org/1999/xlink" width="200" height="200"><path d="M352.256 345.088a334.848 159.744 90 1 0 319.488 0 334.848 159.744 90 1 0-319.488 0Z" fill="#FF9800" opacity=".7" p-id="9898"></path><path d="M352.256 678.912a334.848 159.744 90 1 0 319.488 0 334.848 159.744 90 1 0-319.488 0Z" fill="#03A9F4" opacity=".7" p-id="9899"></path><path d="M344.064 512a334.848 159.744 0 1 0 669.696 0 334.848 159.744 0 1 0-669.696 0Z" fill="#8BC34A" opacity=".7" p-id="9900"></path><path d="M10.24 512a334.848 159.744 0 1 0 669.696 0 334.848 159.744 0 1 0-669.696 0Z" fill="#9C27B0" opacity=".7" p-id="9901"></path><path d="M281.45681 506.770946a334.848 159.744 44.999 1 0 225.908188-225.916074 334.848 159.744 44.999 1 0-225.908188 225.916074Z" fill="#F44336" opacity=".7" p-id="9902"></path><path d="M516.62052 743.151127a334.848 159.744 44.999 1 0 225.908188-225.916074 334.848 159.744 44.999 1 0-225.908188 225.916074Z" fill="#009688" opacity=".7" p-id="9903"></path><path d="M157.03051 866.355037a159.744 334.848 44.999 1 0 473.538318-473.554847 159.744 334.848 44.999 1 0-473.538318 473.554847Z" fill="#3F51B5" opacity=".7" p-id="9904"></path><path d="M393.413691 631.198568a159.744 334.848 44.999 1 0 473.538318-473.554848 159.744 334.848 44.999 1 0-473.538318 473.554848Z" fill="#FFEB3B" opacity=".7" p-id="9905"></path><path d="M512 512m-129.024 0a129.024 129.024 0 1 0 258.048 0 129.024 129.024 0 1 0-258.048 0Z" fill="#FFFFFF" p-id="9906"></path></svg>